<?xml version="1.0" encoding="UTF-8" standalone="no"?>
<!-- Created with Inkscape (http://www.inkscape.org/) -->

<svg
   xmlns:dc="http://purl.org/dc/elements/1.1/"
   xmlns:cc="http://creativecommons.org/ns#"
   xmlns:rdf="http://www.w3.org/1999/02/22-rdf-syntax-ns#"
   xmlns:svg="http://www.w3.org/2000/svg"
   xmlns="http://www.w3.org/2000/svg"
   version="1.1"
   width="475"
   height="145.17999"
   id="svg3222"
   xml:space="preserve"><metadata
     id="metadata3228"><rdf:RDF><cc:Work
         rdf:about=""><dc:format>image/svg+xml</dc:format><dc:type
           rdf:resource="http://purl.org/dc/dcmitype/StillImage" /><dc:title></dc:title></cc:Work></rdf:RDF></metadata><defs
     id="defs3226" /><g
     transform="matrix(1.25,0,0,-1.25,0,145.18129)"
     id="g3230"><g
       transform="translate(17.512958,13.525781)"
       id="g3030"><g
         transform="matrix(0.09999805,6.2390014e-4,-6.2390014e-4,0.09999805,0.27334173,-1.0835992)"
         id="g3232"><path
           d="m 234.359,630.656 c 50.692,50.684 120.735,82.039 198.114,82.039 77.172,0 147.047,-31.211 197.699,-81.664 l 0.203,186.563 c -59.301,30.547 -126.609,47.797 -197.902,47.797 -71.328,0 -138.996,-19.43 -198.328,-49.996 l 0.214,-184.739"
           id="path3234"
           style="fill:#f1511b;fill-opacity:1;fill-rule:nonzero;stroke:none" /><path
           d="M 630.375,234.746 C 579.691,184.055 509.68,152.703 432.301,152.703 c -77.172,0 -147.051,31.203 -197.735,81.664 L 234.359,47.8047 C 293.695,17.2578 360.977,0 432.301,0 503.633,0 570.934,17.2578 630.238,47.8125 l 0.137,186.9335"
           id="path3236"
           style="fill:#eea00c;fill-opacity:1;fill-rule:nonzero;stroke:none" /><path
           d="m 234.734,234.504 c -50.679,50.684 -82.043,120.691 -82.043,198.074 0,77.172 31.211,147.047 81.668,197.735 L 47.793,630.508 C 17.25,571.184 0,503.906 0,432.578 0,361.25 17.25,293.945 47.8164,234.629 l 186.9176,-0.125"
           id="path3238"
           style="fill:#564ca9;fill-opacity:1;fill-rule:nonzero;stroke:none" /><path
           d="m 630.273,631.039 c 50.688,-50.676 82.047,-120.726 82.047,-198.109 0,-77.168 -31.207,-147.051 -81.675,-197.696 l 186.574,-0.203 c 30.547,59.305 47.793,126.61 47.793,197.899 0,71.34 -17.246,138.648 -47.809,197.98 l -186.93,0.129"
           id="path3240"
           style="fill:#159281;fill-opacity:1;fill-rule:nonzero;stroke:none" /></g><g
         transform="scale(1,-1)"
         id="text2994"
         style="font-size:32px;font-style:normal;font-variant:normal;font-weight:normal;font-stretch:normal;line-height:0%;letter-spacing:0px;word-spacing:0px;fill:#231f20;fill-opacity:1;stroke:none;font-family:Avenir LT Std;-inkscape-font-specification:Avenir LT Std"><path
           d="m 309.42294,-4.7192173 1.064,0 0.8176,-1.9488 3.9648,0 0.8064,1.9488 1.0976,0 -3.3712,-7.9295997 -0.8848,0 -3.4944,7.9295997 m 5.488,-2.8224 -3.2368,0 1.6464,-3.8975997 0.0224,0 1.568,3.8975997"
           id="path3025"
           style="font-size:11.19999981px;line-height:0%;font-family:Avenir LT Std;-inkscape-font-specification:Avenir LT Std" /><path
           d="m 322.50822,-12.648817 -6.1824,0 0,0.8736 2.6208,0 0,7.0559997 0.9408,0 0,-7.0559997 2.6208,0 0,-0.8736"
           id="path3027"
           style="font-size:11.19999981px;line-height:0%;font-family:Avenir LT Std;-inkscape-font-specification:Avenir LT Std" /><path
           d="m 323.61947,-4.7192173 4.5696,0 0,-0.8736 -3.6288,0 0,-7.0559997 -0.9408,0 0,7.9295997"
           id="path3029"
           style="font-size:11.19999981px;line-height:0%;font-family:Avenir LT Std;-inkscape-font-specification:Avenir LT Std" /><path
           d="m 328.30107,-4.7192173 1.064,0 0.8176,-1.9488 3.9648,0 0.8064,1.9488 1.0976,0 -3.3712,-7.9295997 -0.8848,0 -3.4944,7.9295997 m 5.488,-2.8224 -3.2368,0 1.6464,-3.8975997 0.0224,0 1.568,3.8975997"
           id="path3031"
           style="font-size:11.19999981px;line-height:0%;font-family:Avenir LT Std;-inkscape-font-specification:Avenir LT Std" /><path
           d="m 341.63047,-11.920817 c -0.5824,-0.683199 -1.3328,-0.9296 -2.2176,-0.9296 -1.3888,0 -2.6992,0.761601 -2.6992,2.2848 0,1.3215985 0.8512,1.8144001 1.9712,2.1839998 1.4112,0.4703995 2.072,0.6384009 2.072,1.6127999 0,0.9071991 -0.9184,1.3776 -1.7248,1.3776 -0.6832,0 -1.3552,-0.3024006 -1.6912,-0.8848 l -0.8064,0.6608 c 0.5376,0.7951992 1.5232,1.0976 2.4416,1.0976 1.4336,0 2.7888,-0.7392016 2.7888,-2.3184 0,-1.5567984 -1.1424,-1.9600003 -2.3744,-2.3519999 -1.2656,-0.4031996 -1.6688,-0.7280007 -1.6688,-1.4559998 0,-0.940799 0.8624,-1.3328 1.6912,-1.3328 0.5712,0 1.1312,0.224 1.4448,0.728 l 0.7728,-0.672"
           id="path3033"
           style="font-size:11.19999981px;line-height:0%;font-family:Avenir LT Std;-inkscape-font-specification:Avenir LT Std" /></g><g
         transform="scale(1,-1)"
         id="text3030"
         style="font-size:53.59999847px;font-style:normal;font-variant:normal;font-weight:normal;font-stretch:normal;text-align:start;line-height:100%;letter-spacing:0px;word-spacing:0px;writing-mode:lr-tb;text-anchor:start;fill:#231f20;fill-opacity:1;stroke:none;font-family:Avenir LT Std;-inkscape-font-specification:Avenir LT Std"><path
           d="m 122.86331,-23.99637 c 11.52399,0 19.832,-8.468811 19.832,-19.9392 0,-11.470388 -8.30801,-19.939199 -19.832,-19.939199 -11.52399,0 -19.832,8.468811 -19.832,19.939199 0,11.470389 8.30801,19.9392 19.832,19.9392 m 0,-4.1808 c -8.89759,0 -15.008,-7.021609 -15.008,-15.7584 0,-8.736791 6.11041,-15.758399 15.008,-15.758399 8.89759,0 15.008,7.021608 15.008,15.758399 0,8.736791 -6.11041,15.7584 -15.008,15.7584"
           id="path3036"
           style="line-height:100%;fill:#231f20;font-family:Avenir LT Std;-inkscape-font-specification:Avenir LT Std" /><path
           d="m 148.96567,-12.740371 4.1808,0 0,-16.669599 0.1072,0 c 1.5544,2.840797 5.1456,5.092 9.648,5.092 7.02159,0 12.5424,-5.681608 12.5424,-13.1856 0,-7.611192 -5.30641,-13.185599 -13.1856,-13.185599 -3.6448,0 -6.7,1.608002 -9.0048,4.287999 l -0.1072,0 0,-3.644799 -4.1808,0 0,37.305598 m 4.1808,-24.763199 c 0,-5.252794 3.484,-9.3264 8.8976,-9.3264 5.41359,0 8.8976,4.073606 8.8976,9.3264 0,5.252795 -3.48401,9.3264 -8.8976,9.3264 -5.4136,0 -8.8976,-4.073605 -8.8976,-9.3264"
           id="path3038"
           style="line-height:100%;fill:#231f20;font-family:Avenir LT Std;-inkscape-font-specification:Avenir LT Std" /><path
           d="m 201.18966,-31.98277 c -1.9832,2.519197 -4.39521,3.8056 -7.9864,3.8056 -4.556,0 -7.8792,-3.698404 -8.2008,-8.04 l 20.2608,0 0,-1.34 c 0,-8.307991 -4.82401,-13.131999 -11.8992,-13.131999 -7.39679,0 -12.864,5.413607 -12.864,13.185599 0,7.289593 4.82401,13.1856 12.7032,13.1856 4.66319,0 8.2008,-1.393604 11.1488,-5.1992 l -3.1624,-2.4656 m -16.1872,-7.772 c 0.536,-4.234395 3.5912,-7.0752 8.2008,-7.0752 4.60959,0 7.3968,2.840805 7.5576,7.0752 l -15.7584,0"
           id="path3040"
           style="line-height:100%;fill:#231f20;font-family:Avenir LT Std;-inkscape-font-specification:Avenir LT Std" /><path
           d="m 211.7832,-24.96117 4.1808,0 0,-12.2208 c 0,-5.735194 2.3584,-9.648 7.77199,-9.648 3.9128,0 5.7352,2.626405 5.7352,6.8072 l 0,15.0616 4.1808,0 0,-15.4904 c 0,-6.056794 -2.948,-10.237599 -9.5408,-10.237599 -4.12719,0 -7.236,2.304802 -8.36159,4.770399 l -0.1072,0 c 0,-1.393598 -0.1072,-2.787201 -0.1072,-4.127199 l -3.9664,0 c 0,1.661598 0.2144,3.644802 0.2144,5.949599 l 0,19.1352"
           id="path3042"
           style="line-height:100%;fill:#231f20;font-family:Avenir LT Std;-inkscape-font-specification:Avenir LT Std" /><path
           d="m 242.36953,-24.96117 4.5024,0 0,-31.838399 0.1072,0 13.6144,31.838399 2.7336,0 13.6144,-31.838399 0.1072,0 0,31.838399 4.5024,0 0,-37.948799 -6.5392,0 -12.9712,29.747999 -0.1072,0 -12.864,-29.747999 -6.7,0 0,37.948799"
           id="path3044"
           style="line-height:100%;fill:#231f20;font-family:Avenir LT Std;-inkscape-font-specification:Avenir LT Std" /><path
           d="m 290.94453,-24.96117 4.5024,0 0,-17.0448 5.7888,0 10.2912,17.0448 5.5208,0 -10.7736,-17.4736 c 5.89599,-0.911199 9.4872,-4.502405 9.4872,-10.023199 0,-9.379991 -7.77201,-10.452 -15.1152,-10.452 l -9.7016,0 0,37.948799 m 4.5024,-33.767999 6.3248,0 c 4.39519,0 9.1656,0.804005 9.1656,6.2712 0,6.271193 -6.48561,6.271199 -11.4704,6.271199 l -4.02,0 0,-12.542399"
           id="path3046"
           style="line-height:100%;fill:#231f20;font-family:Avenir LT Std;-inkscape-font-specification:Avenir LT Std" /><path
           d="m 345.41971,-59.425969 c -2.7872,-3.269597 -6.3784,-4.4488 -10.6128,-4.4488 -6.64639,0 -12.9176,3.644807 -12.9176,10.9344 0,6.324793 4.07361,8.683201 9.4336,10.451999 6.75359,2.251198 9.916,3.055205 9.916,7.7184 0,4.341596 -4.3952,6.5928 -8.2544,6.5928 -3.2696,0 -6.4856,-1.447203 -8.0936,-4.2344 l -3.8592,3.1624 c 2.5728,3.805596 7.28961,5.2528 11.6848,5.2528 6.86079,0 13.3464,-3.537608 13.3464,-11.0952 0,-7.450392 -5.46721,-9.380002 -11.3632,-11.256 -6.05679,-1.929598 -7.9864,-3.484003 -7.9864,-6.967999 0,-4.502396 4.1272,-6.3784 8.0936,-6.3784 2.7336,0 5.4136,1.072002 6.9144,3.484 l 3.6984,-3.216"
           id="path3048"
           style="line-height:100%;fill:#231f20;font-family:Avenir LT Std;-inkscape-font-specification:Avenir LT Std" /></g></g></g></svg>